# xmcd
#
# Track frame offsets:
#	150
#	12638
#	25378
#	35279
#	46033
#	57338
#	67414
#	77784
#	88884
#	98913
#	110933
#	122765
#	135081
#	146173
#	158176
#	166366
#	173949
#	185853
#	195929
#	206281
#
# Disc length: 2910 seconds
#
# Revision: 1
# Processed by: cddbd v1.5.2PL0 Copyright (c) Steve Scherf et al.
# Submitted via: audiograbber 1.83.01
#
DISCID=210b5c14
DTITLE=Johnny Cash - 100 Hits Legends   CD 01
DYEAR=2011
DGENRE=Country
TTITLE0=I Walk The Line
TTITLE1=Folsom Prison Blues
TTITLE2=Ballad Of A Teenage Queen
TTITLE3=Train Of Love
TTITLE4=Big River
TTITLE5=Get Rhythm
TTITLE6=There You Go
TTITLE7=Cry, Cry, Cry
TTITLE8=Hey Porter
TTITLE9=Home Of The Blues
TTITLE10=So Doggone Lonesome
TTITLE11=Next In Line
TTITLE12=Don't Make Me Go
TTITLE13=Give My Love To Rose
TTITLE14=Guess Things Happen That Way
TTITLE15=Come In Stranger
TTITLE16=Doin' My Time
TTITLE17=The Ways Of A Woman In Love
TTITLE18=Frankie's Man, Johnny
TTITLE19=You're The Nearest Thing To Heaven
EXTD=
EXTT0=
EXTT1=
EXTT2=
EXTT3=
EXTT4=
EXTT5=
EXTT6=
EXTT7=
EXTT8=
EXTT9=
EXTT10=
EXTT11=
EXTT12=
EXTT13=
EXTT14=
EXTT15=
EXTT16=
EXTT17=
EXTT18=
EXTT19=
PLAYORDER=
